# xmcd
#
# Track frame offsets:
# 150
# 19356
# 38182
# 53012
# 71449
# 84572
# 97962
# 116730
# 132402
# 148499
# 162896
# 178337
# 194977
# 210933
# 228202
#
# Disc length: 3255 seconds
#
# Revision: 0
# Processed by: cddbd v1.5.2PL0 Copyright (c) Steve Scherf et al.
# Submitted via: Axialis_AX_CDPlayer 2.6
#
DISCID=dc0cb50f
DTITLE=Juice Newton - Juice Newton's Greatest Hits (And More)
DYEAR=1900
DGENRE=
TTITLE0=Angel Of The Morning
TTITLE1=Heart Of The Night
TTITLE2=Love's Been A Little Bit Hard On Me
TTITLE3=Break It To Me Gently
TTITLE4=Low Down And Lonesome
TTITLE5=So Many Ways
TTITLE6=The Sweetest Thing (I've Ever Known)
TTITLE7=Queen Of Hearts
TTITLE8=Lay Back In The Arms Of Someone
TTITLE9=Hey Baby
TTITLE10=Shot Full Of Love
TTITLE11=I'm Gonna Be Strong
TTITLE12=It's A Heartache
TTITLE13=Dirty Looks
TTITLE14=Tell Her No
EXTD=www.juicenewton.com
EXTT0=
EXTT1=
EXTT2=
EXTT3=
EXTT4=
EXTT5=
EXTT6=
EXTT7=
EXTT8=
EXTT9=
EXTT10=
EXTT11=
EXTT12=
EXTT13=
EXTT14=
PLAYORDER=
